<?xml version="1.0" encoding="utf-8"?>
<!-- Generator: Adobe Illustrator 27.2.0, SVG Export Plug-In . SVG Version: 6.00 Build 0)  -->
<svg version="1.1" id="Слой_1" xmlns="http://www.w3.org/2000/svg" xmlns:xlink="http://www.w3.org/1999/xlink" x="0px" y="0px"
	 viewBox="0 0 518 78" style="enable-background:new 0 0 518 78;" xml:space="preserve">
<style type="text/css">
	.st0{fill:#1F3B90;}
</style>
<g>
	<g>
		<polygon class="st0" points="127.8,36.6 92.2,34.3 53.3,25.9 54.7,8.4 93,5 129.1,22.3 92.1,11.1 90.9,28.4 		"/>
		<polygon class="st0" points="175.5,39.5 154.4,29.3 131.9,31.3 131.2,41.5 154,46.5 174.8,47.8 153.4,43.3 154,33 		"/>
		<path class="st0" d="M42.7,63l136.2,1.3L35.4,74.5L4.1,20.8c0,0,187.3,33,187.6,33.3L25.4,33.7L42.7,63z"/>
	</g>
</g>
<g>
	<path d="M201.4,43.5c-0.6,0-1-0.2-1.3-0.5s-0.5-0.8-0.5-1.3V19.9c0-0.6,0.2-1,0.5-1.3s0.8-0.5,1.3-0.5h6.9c4.2,0,7.3,1.1,9.6,3.3
		c2.2,2.2,3.4,5.3,3.4,9.4c0,2-0.3,3.9-0.9,5.4c-0.6,1.6-1.4,2.9-2.5,4s-2.5,1.9-4,2.4c-1.6,0.6-3.4,0.8-5.5,0.8L201.4,43.5
		L201.4,43.5z M202.9,40.6h5.2c1.6,0,3-0.2,4.2-0.6c1.2-0.4,2.2-1,3-1.8s1.4-1.8,1.8-3.1c0.4-1.2,0.6-2.7,0.6-4.3
		c0-3.3-0.8-5.7-2.4-7.4c-1.6-1.6-4-2.4-7.3-2.4h-5.2L202.9,40.6L202.9,40.6z"/>
	<path d="M237.3,43.8c-2.4,0-4.5-0.5-6.2-1.6c-1.8-1.1-3.1-2.6-4.1-4.5c-1-2-1.5-4.3-1.5-6.9c0-2,0.3-3.8,0.8-5.4
		c0.6-1.6,1.3-3,2.4-4.1c1-1.1,2.3-2,3.7-2.6c1.5-0.6,3.1-0.9,4.9-0.9c2.4,0,4.5,0.5,6.2,1.6c1.8,1.1,3.1,2.6,4.1,4.5
		s1.4,4.2,1.4,6.9c0,2-0.3,3.8-0.8,5.4c-0.6,1.6-1.3,3-2.4,4.1c-1,1.2-2.2,2-3.7,2.6S239.1,43.8,237.3,43.8z M237.3,40.8
		c1.7,0,3.2-0.4,4.4-1.2s2.2-1.9,2.8-3.5c0.7-1.5,1-3.3,1-5.4c0-3.2-0.7-5.7-2.1-7.4c-1.4-1.8-3.5-2.6-6.1-2.6
		c-1.7,0-3.2,0.4-4.4,1.2c-1.2,0.8-2.2,1.9-2.8,3.4s-1,3.3-1,5.5c0,3.2,0.7,5.6,2.2,7.4C232.6,39.9,234.7,40.8,237.3,40.8z"/>
	<path d="M255.8,43.7c-0.5,0-0.9-0.1-1.1-0.4c-0.3-0.3-0.4-0.7-0.4-1.2V19.5c0-0.6,0.1-1,0.4-1.3c0.3-0.3,0.6-0.4,1-0.4
		c0.4,0,0.7,0.1,0.9,0.2s0.5,0.4,0.7,0.8L272.6,39h-0.9V19.4c0-0.5,0.1-0.9,0.4-1.2c0.3-0.3,0.7-0.4,1.2-0.4s0.9,0.1,1.2,0.4
		s0.4,0.7,0.4,1.2V42c0,0.5-0.1,0.9-0.4,1.2s-0.6,0.4-1,0.4s-0.7-0.1-1-0.2s-0.5-0.4-0.8-0.8l-15.2-20.2h0.8V42
		c0,0.5-0.1,0.9-0.4,1.2C256.6,43.6,256.3,43.7,255.8,43.7z"/>
	<path d="M282.4,43.7c-0.5,0-0.9-0.1-1.1-0.4c-0.3-0.3-0.4-0.7-0.4-1.2V19.5c0-0.6,0.1-1,0.4-1.3s0.6-0.4,1-0.4s0.7,0.1,0.9,0.2
		s0.5,0.4,0.7,0.8L299.2,39h-0.9V19.4c0-0.5,0.1-0.9,0.4-1.2c0.3-0.3,0.7-0.4,1.2-0.4s0.9,0.1,1.2,0.4s0.4,0.7,0.4,1.2V42
		c0,0.5-0.1,0.9-0.4,1.2s-0.6,0.4-1,0.4s-0.7-0.1-1-0.2s-0.5-0.4-0.8-0.8l-15.2-20.2h0.8V42c0,0.5-0.1,0.9-0.4,1.2
		C283.3,43.6,282.9,43.7,282.4,43.7z"/>
	<path d="M309.4,43.5c-0.6,0-1-0.2-1.3-0.5s-0.5-0.8-0.5-1.3V19.9c0-0.6,0.2-1,0.5-1.3s0.8-0.5,1.3-0.5h13.2c0.5,0,0.8,0.1,1.1,0.3
		c0.3,0.2,0.4,0.6,0.4,1c0,0.5-0.1,0.8-0.4,1s-0.6,0.4-1.1,0.4h-11.8v8.4h11.1c0.5,0,0.8,0.1,1,0.4c0.2,0.2,0.4,0.6,0.4,1
		c0,0.5-0.1,0.8-0.4,1c-0.2,0.2-0.6,0.3-1,0.3h-11.1v8.8h11.8c0.5,0,0.8,0.1,1.1,0.3c0.3,0.2,0.4,0.6,0.4,1c0,0.5-0.1,0.8-0.4,1
		s-0.6,0.3-1.1,0.3h-13.2V43.5z"/>
	<path d="M330.4,43.7c-0.6,0-1-0.2-1.3-0.5s-0.5-0.8-0.5-1.3v-22c0-0.6,0.2-1,0.5-1.3s0.8-0.5,1.3-0.5h12.9c0.5,0,0.8,0.1,1.1,0.3
		c0.2,0.2,0.4,0.6,0.4,1c0,0.5-0.1,0.8-0.4,1c-0.2,0.2-0.6,0.4-1.1,0.4H332v8.5h10.7c0.5,0,0.8,0.1,1,0.4c0.2,0.2,0.4,0.6,0.4,1
		c0,0.5-0.1,0.8-0.4,1c-0.2,0.2-0.6,0.4-1,0.4H332V42C332,43.1,331.5,43.7,330.4,43.7z"/>
	<path d="M356.5,43.7c-0.6,0-1-0.1-1.3-0.5c-0.3-0.3-0.4-0.7-0.4-1.3v-21h-7.9c-0.5,0-0.8-0.1-1.1-0.4c-0.3-0.3-0.4-0.6-0.4-1.1
		s0.1-0.8,0.4-1s0.6-0.4,1.1-0.4H366c0.5,0,0.8,0.1,1.1,0.4c0.3,0.2,0.4,0.6,0.4,1c0,0.5-0.1,0.8-0.4,1.1s-0.6,0.4-1.1,0.4h-7.9V42
		c0,0.6-0.1,1-0.4,1.3C357.5,43.6,357,43.7,356.5,43.7z"/>
	<path d="M372.3,43.5c-0.6,0-1-0.2-1.3-0.5s-0.5-0.8-0.5-1.3V19.9c0-0.6,0.2-1,0.5-1.3s0.8-0.5,1.3-0.5h13.2c0.5,0,0.8,0.1,1.1,0.3
		c0.3,0.2,0.4,0.6,0.4,1c0,0.5-0.1,0.8-0.4,1s-0.6,0.4-1.1,0.4h-11.8v8.4h11.1c0.5,0,0.8,0.1,1,0.4c0.2,0.2,0.4,0.6,0.4,1
		c0,0.5-0.1,0.8-0.4,1c-0.2,0.2-0.6,0.3-1,0.3h-11.1v8.8h11.8c0.5,0,0.8,0.1,1.1,0.3c0.3,0.2,0.4,0.6,0.4,1c0,0.5-0.1,0.8-0.4,1
		s-0.6,0.3-1.1,0.3h-13.2V43.5z"/>
	<path d="M399,43.7c-0.6,0-1-0.1-1.3-0.5c-0.3-0.3-0.4-0.7-0.4-1.3v-21h-7.9c-0.5,0-0.8-0.1-1.1-0.4c-0.3-0.3-0.4-0.6-0.4-1.1
		s0.1-0.8,0.4-1s0.6-0.4,1.1-0.4h19.1c0.5,0,0.8,0.1,1.1,0.4c0.3,0.2,0.4,0.6,0.4,1c0,0.5-0.1,0.8-0.4,1.1s-0.6,0.4-1.1,0.4h-7.9V42
		c0,0.6-0.1,1-0.4,1.3C400,43.6,399.6,43.7,399,43.7z"/>
	<path d="M414.7,43.7c-0.5,0-0.9-0.1-1.2-0.5c-0.3-0.3-0.4-0.7-0.4-1.3V19.8c0-0.6,0.1-1,0.4-1.3s0.7-0.4,1.2-0.4h8.6
		c2.7,0,4.8,0.6,6.3,1.9s2.2,3.1,2.2,5.5c0,1.5-0.3,2.9-1,3.9c-0.7,1.1-1.6,1.9-2.9,2.5s-2.8,0.9-4.6,0.9l0.4-0.5h0.8
		c1,0,1.8,0.2,2.5,0.7s1.3,1.2,1.9,2.3l3.3,6.1c0.2,0.4,0.3,0.8,0.3,1.1c0,0.4-0.2,0.7-0.4,0.9c-0.2,0.2-0.6,0.3-1,0.3
		c-0.5,0-0.9-0.1-1.2-0.3s-0.5-0.5-0.8-0.9l-3.9-7.1c-0.5-1-1.1-1.7-1.8-2c-0.7-0.3-1.6-0.5-2.7-0.5h-4.3V42c0,0.6-0.1,1-0.4,1.3
		S415.2,43.7,414.7,43.7z M416.4,30.3h6.4c1.9,0,3.4-0.4,4.3-1.2c1-0.8,1.4-2,1.4-3.5c0-1.6-0.5-2.7-1.4-3.5c-1-0.8-2.4-1.2-4.3-1.2
		h-6.4V30.3z"/>
	<path d="M436.4,43.7c-0.4,0-0.8-0.1-1-0.3S435,43,435,42.6c0-0.3,0-0.7,0.2-1.1l9.8-22.2c0.2-0.5,0.5-0.9,0.8-1.1s0.7-0.3,1.1-0.3
		s0.8,0.1,1.1,0.3c0.3,0.2,0.6,0.6,0.8,1.1l9.8,22.2c0.2,0.4,0.3,0.8,0.2,1.1c0,0.3-0.2,0.6-0.4,0.8c-0.2,0.2-0.6,0.3-1,0.3
		c-0.5,0-0.9-0.1-1.2-0.4s-0.5-0.6-0.8-1.1l-2.6-6l1.5,0.9h-15.4l1.5-0.9l-2.6,6c-0.2,0.5-0.5,0.9-0.7,1.1
		C437.2,43.6,436.9,43.7,436.4,43.7z M446.9,21.9l-5.6,13.3l-0.9-0.8h13l-0.8,0.8L446.9,21.9L446.9,21.9z"/>
	<path d="M464.7,43.7c-0.5,0-0.9-0.1-1.1-0.4c-0.3-0.3-0.4-0.7-0.4-1.2V19.5c0-0.6,0.1-1,0.4-1.3s0.6-0.4,1-0.4s0.7,0.1,0.9,0.2
		s0.5,0.4,0.7,0.8L481.6,39h-0.9V19.4c0-0.5,0.1-0.9,0.4-1.2c0.3-0.3,0.7-0.4,1.2-0.4s0.9,0.1,1.2,0.4s0.4,0.7,0.4,1.2V42
		c0,0.5-0.1,0.9-0.4,1.2s-0.6,0.4-1,0.4s-0.7-0.1-1-0.2s-0.5-0.4-0.8-0.8l-15.2-20.2h0.8V42c0,0.5-0.1,0.9-0.4,1.2
		C465.6,43.6,465.2,43.7,464.7,43.7z"/>
	<path d="M498.2,43.8c-1.1,0-2.2-0.1-3.3-0.3c-1.1-0.2-2.1-0.5-3-0.8c-0.9-0.4-1.8-0.8-2.5-1.3c-0.3-0.2-0.5-0.5-0.7-0.8
		c-0.1-0.3-0.2-0.6-0.1-0.9c0.1-0.3,0.2-0.6,0.4-0.8c0.2-0.2,0.5-0.3,0.7-0.4c0.3,0,0.6,0,0.9,0.3c1.1,0.7,2.3,1.3,3.5,1.6
		s2.5,0.5,4,0.5c2.1,0,3.7-0.4,4.7-1.2s1.5-1.8,1.5-3c0-1-0.4-1.8-1.1-2.4c-0.7-0.6-1.9-1-3.6-1.4l-3.8-0.8
		c-2.3-0.5-3.9-1.3-5.1-2.4c-1.1-1.1-1.7-2.6-1.7-4.4c0-1.1,0.2-2.2,0.7-3.1s1.1-1.7,1.9-2.4c0.8-0.7,1.8-1.2,3-1.5
		c1.1-0.4,2.4-0.5,3.8-0.5c1.5,0,2.9,0.2,4.2,0.6s2.5,1,3.5,1.8c0.3,0.2,0.5,0.5,0.6,0.8s0.1,0.6,0.1,0.9c-0.1,0.3-0.2,0.5-0.4,0.7
		c-0.2,0.2-0.5,0.3-0.8,0.3s-0.6-0.1-1-0.3c-1-0.7-1.9-1.2-3-1.5c-1-0.3-2.1-0.5-3.3-0.5c-1.2,0-2.3,0.2-3.2,0.6
		c-0.9,0.4-1.6,0.9-2.1,1.6s-0.7,1.5-0.7,2.4c0,1.1,0.3,2,1,2.6s1.8,1.1,3.4,1.4l3.8,0.8c2.4,0.5,4.2,1.3,5.3,2.3
		c1.1,1,1.7,2.4,1.7,4.2c0,1.1-0.2,2.1-0.7,3c-0.4,0.9-1.1,1.7-1.9,2.3s-1.8,1.1-3,1.5C501,43.6,499.6,43.8,498.2,43.8z"/>
</g>
<g>
	<g>
		<path class="st0" d="M201.4,56.8c-0.6,0-1,0-1.3,0.1s-0.5,0.2-0.5,0.4v6.1c0,0.2,0.2,0.3,0.5,0.4c0.3,0.1,0.8,0.1,1.3,0.1h6.9
			c4.2,0,7.3-0.3,9.6-0.9c2.2-0.6,3.4-1.5,3.4-2.6c0-0.6-0.3-1.1-0.9-1.5c-0.6-0.4-1.4-0.8-2.5-1.1s-2.5-0.5-4-0.7
			c-1.6-0.2-3.4-0.2-5.5-0.2L201.4,56.8L201.4,56.8z M202.9,57.6h5.2c1.6,0,3,0.1,4.2,0.2c1.2,0.1,2.2,0.3,3,0.5s1.4,0.5,1.8,0.9
			c0.4,0.3,0.6,0.7,0.6,1.2c0,0.9-0.8,1.6-2.4,2.1c-1.6,0.5-4,0.7-7.3,0.7h-5.2L202.9,57.6L202.9,57.6z"/>
	</g>
	<g>
		<path class="st0" d="M237.3,56.8c-2.4,0-4.5,0.1-6.2,0.4c-1.8,0.3-3.1,0.7-4.1,1.3c-1,0.5-1.5,1.2-1.5,1.9c0,0.6,0.3,1.1,0.8,1.5
			c0.6,0.4,1.3,0.8,2.4,1.1c1,0.3,2.3,0.6,3.7,0.7c1.5,0.2,3.1,0.3,4.9,0.3c2.4,0,4.5-0.1,6.2-0.4c1.8-0.3,3.1-0.7,4.1-1.3
			c1-0.5,1.4-1.2,1.4-1.9c0-0.6-0.3-1.1-0.8-1.5c-0.6-0.4-1.3-0.8-2.4-1.2c-1-0.3-2.2-0.6-3.7-0.7S239.1,56.8,237.3,56.8z
			 M237.3,57.6c1.7,0,3.2,0.1,4.4,0.3s2.2,0.5,2.8,1c0.7,0.4,1,0.9,1,1.5c0,0.9-0.7,1.6-2.1,2.1c-1.4,0.5-3.5,0.7-6.1,0.7
			c-1.7,0-3.2-0.1-4.4-0.3s-2.2-0.5-2.8-1c-0.6-0.4-1-0.9-1-1.5c0-0.9,0.7-1.6,2.2-2.1C232.6,57.8,234.7,57.6,237.3,57.6z"/>
	</g>
	<g>
		<path class="st0" d="M255.8,56.8c-0.5,0-0.9,0-1.1,0.1c-0.3,0.1-0.4,0.2-0.4,0.3v6.3c0,0.2,0.1,0.3,0.4,0.4c0.3,0.1,0.6,0.1,1,0.1
			c0.4,0,0.7,0,0.9-0.1c0.2,0,0.5-0.1,0.7-0.2l15.3-5.6h-0.9v5.5c0,0.1,0.1,0.3,0.4,0.3c0.3,0.1,0.7,0.1,1.2,0.1s0.9,0,1.2-0.1
			s0.4-0.2,0.4-0.3v-6.3c0-0.1-0.1-0.3-0.4-0.3c-0.3-0.1-0.6-0.1-1-0.1s-0.7,0-1,0.1c-0.3,0-0.5,0.1-0.8,0.2l-15.2,5.6h0.8v-5.5
			c0-0.1-0.1-0.3-0.4-0.3C256.6,56.8,256.3,56.8,255.8,56.8z"/>
	</g>
	<g>
		<path class="st0" d="M282.4,56.8c-0.5,0-0.9,0-1.1,0.1c-0.3,0.1-0.4,0.2-0.4,0.3v6.3c0,0.2,0.1,0.3,0.4,0.4c0.3,0.1,0.6,0.1,1,0.1
			s0.7,0,0.9-0.1c0.2,0,0.5-0.1,0.7-0.2l15.3-5.6h-0.9v5.5c0,0.1,0.1,0.3,0.4,0.3c0.3,0.1,0.7,0.1,1.2,0.1s0.9,0,1.2-0.1
			s0.4-0.2,0.4-0.3v-6.3c0-0.1-0.1-0.3-0.4-0.3c-0.3-0.1-0.6-0.1-1-0.1s-0.7,0-1,0.1c-0.3,0-0.5,0.1-0.8,0.2l-15.2,5.6h0.8v-5.5
			c0-0.1-0.1-0.3-0.4-0.3C283.3,56.8,282.9,56.8,282.4,56.8z"/>
	</g>
	<g>
		<path class="st0" d="M309.4,56.8c-0.6,0-1,0-1.3,0.1s-0.5,0.2-0.5,0.4v6.1c0,0.2,0.2,0.3,0.5,0.4c0.3,0.1,0.8,0.1,1.3,0.1h13.2
			c0.5,0,0.8,0,1.1-0.1c0.3-0.1,0.4-0.2,0.4-0.3s-0.1-0.2-0.4-0.3s-0.6-0.1-1.1-0.1h-11.8v-2.3h11.1c0.5,0,0.8,0,1-0.1
			s0.4-0.2,0.4-0.3s-0.1-0.2-0.4-0.3c-0.2-0.1-0.6-0.1-1-0.1h-11.1v-2.4h11.8c0.5,0,0.8,0,1.1-0.1c0.3-0.1,0.4-0.2,0.4-0.3
			s-0.1-0.2-0.4-0.3s-0.6-0.1-1.1-0.1L309.4,56.8L309.4,56.8z"/>
	</g>
	<g>
		<path class="st0" d="M330.4,56.8c-0.6,0-1,0-1.3,0.1s-0.5,0.2-0.5,0.4v6.1c0,0.2,0.2,0.3,0.5,0.4c0.3,0.1,0.8,0.1,1.3,0.1h12.9
			c0.5,0,0.8,0,1.1-0.1c0.2-0.1,0.4-0.2,0.4-0.3s-0.1-0.2-0.4-0.3c-0.2-0.1-0.6-0.1-1.1-0.1H332v-2.4h10.7c0.5,0,0.8,0,1-0.1
			s0.4-0.2,0.4-0.3s-0.1-0.2-0.4-0.3c-0.2-0.1-0.6-0.1-1-0.1H332v-2.7C332,56.9,331.5,56.8,330.4,56.8z"/>
	</g>
	<g>
		<path class="st0" d="M356.5,56.8c-0.6,0-1,0-1.3,0.1s-0.4,0.2-0.4,0.4v5.9h-7.9c-0.5,0-0.8,0-1.1,0.1c-0.3,0.1-0.4,0.2-0.4,0.3
			s0.1,0.2,0.4,0.3s0.6,0.1,1.1,0.1H366c0.5,0,0.8,0,1.1-0.1c0.3-0.1,0.4-0.2,0.4-0.3s-0.1-0.2-0.4-0.3s-0.6-0.1-1.1-0.1h-7.9v-5.9
			c0-0.2-0.1-0.3-0.4-0.4C357.5,56.8,357,56.8,356.5,56.8z"/>
	</g>
	<g>
		<path class="st0" d="M372.3,56.8c-0.6,0-1,0-1.3,0.1s-0.5,0.2-0.5,0.4v6.1c0,0.2,0.2,0.3,0.5,0.4c0.3,0.1,0.8,0.1,1.3,0.1h13.2
			c0.5,0,0.8,0,1.1-0.1c0.3-0.1,0.4-0.2,0.4-0.3s-0.1-0.2-0.4-0.3s-0.6-0.1-1.1-0.1h-11.8v-2.3h11.1c0.5,0,0.8,0,1-0.1
			s0.4-0.2,0.4-0.3s-0.1-0.2-0.4-0.3c-0.2-0.1-0.6-0.1-1-0.1h-11.1v-2.4h11.8c0.5,0,0.8,0,1.1-0.1c0.3-0.1,0.4-0.2,0.4-0.3
			s-0.1-0.2-0.4-0.3s-0.6-0.1-1.1-0.1L372.3,56.8L372.3,56.8z"/>
	</g>
	<g>
		<path class="st0" d="M399,56.8c-0.6,0-1,0-1.3,0.1s-0.4,0.2-0.4,0.4v5.9h-7.9c-0.5,0-0.8,0-1.1,0.1c-0.3,0.1-0.4,0.2-0.4,0.3
			s0.1,0.2,0.4,0.3s0.6,0.1,1.1,0.1h19.1c0.5,0,0.8,0,1.1-0.1c0.3-0.1,0.4-0.2,0.4-0.3s-0.1-0.2-0.4-0.3s-0.6-0.1-1.1-0.1h-7.9v-5.9
			c0-0.2-0.1-0.3-0.4-0.4C400,56.8,399.6,56.8,399,56.8z"/>
	</g>
	<g>
		<path class="st0" d="M414.7,56.8c-0.5,0-0.9,0-1.2,0.1c-0.3,0.1-0.4,0.2-0.4,0.4v6.2c0,0.2,0.1,0.3,0.4,0.4
			c0.3,0.1,0.7,0.1,1.2,0.1h8.6c2.7,0,4.8-0.2,6.3-0.5c1.5-0.4,2.2-0.9,2.2-1.5c0-0.4-0.3-0.8-1-1.1s-1.6-0.5-2.9-0.7
			s-2.8-0.2-4.6-0.2l0.4,0.1h0.8c1,0,1.8-0.1,2.5-0.2c0.7-0.1,1.3-0.3,1.9-0.6l3.3-1.7c0.2-0.1,0.3-0.2,0.3-0.3s-0.2-0.2-0.4-0.2
			c-0.2-0.1-0.6-0.1-1-0.1c-0.5,0-0.9,0-1.2,0.1c-0.3,0.1-0.5,0.1-0.8,0.3l-3.9,2c-0.5,0.3-1.1,0.5-1.8,0.6
			c-0.7,0.1-1.6,0.1-2.7,0.1h-4.3v-2.5c0-0.2-0.1-0.3-0.4-0.4C415.7,56.8,415.2,56.8,414.7,56.8z M416.4,60.5h6.4
			c1.9,0,3.4,0.1,4.3,0.3c1,0.2,1.4,0.6,1.4,1s-0.5,0.8-1.4,1c-1,0.2-2.4,0.3-4.3,0.3h-6.4V60.5z"/>
	</g>
	<g>
		<path class="st0" d="M436.4,56.8c-0.4,0-0.8,0-1,0.1c-0.3,0.1-0.4,0.1-0.4,0.2c0,0.1,0,0.2,0.2,0.3l9.8,6.2
			c0.2,0.1,0.5,0.2,0.8,0.3s0.7,0.1,1.1,0.1s0.8,0,1.1-0.1c0.3-0.1,0.6-0.2,0.8-0.3l9.8-6.2c0.2-0.1,0.3-0.2,0.2-0.3
			c0-0.1-0.2-0.2-0.4-0.2c-0.2-0.1-0.6-0.1-1-0.1c-0.5,0-0.9,0-1.2,0.1c-0.3,0.1-0.5,0.2-0.8,0.3l-2.6,1.7l1.5-0.2h-15.4l1.5,0.2
			l-2.6-1.7c-0.2-0.1-0.5-0.3-0.7-0.3C437.2,56.8,436.9,56.8,436.4,56.8z M446.9,62.9l-5.6-3.7l-0.9,0.2h13l-0.8-0.2L446.9,62.9
			L446.9,62.9z"/>
	</g>
	<g>
		<path class="st0" d="M464.7,56.8c-0.5,0-0.9,0-1.1,0.1c-0.3,0.1-0.4,0.2-0.4,0.3v6.3c0,0.2,0.1,0.3,0.4,0.4c0.3,0.1,0.6,0.1,1,0.1
			s0.7,0,0.9-0.1c0.2,0,0.5-0.1,0.7-0.2l15.3-5.6h-0.9v5.5c0,0.1,0.1,0.3,0.4,0.3c0.3,0.1,0.7,0.1,1.2,0.1s0.9,0,1.2-0.1
			s0.4-0.2,0.4-0.3v-6.3c0-0.1-0.1-0.3-0.4-0.3c-0.3-0.1-0.6-0.1-1-0.1s-0.7,0-1,0.1c-0.3,0-0.5,0.1-0.8,0.2l-15.2,5.6h0.8v-5.5
			c0-0.1-0.1-0.3-0.4-0.3C465.6,56.8,465.2,56.8,464.7,56.8z"/>
	</g>
	<g>
		<path class="st0" d="M498.2,56.8c-1.1,0-2.2,0-3.3,0.1c-1.1,0.1-2.1,0.1-3,0.2c-0.9,0.1-1.8,0.2-2.5,0.4c-0.3,0.1-0.5,0.1-0.7,0.2
			c-0.1,0.1-0.2,0.2-0.1,0.3s0.2,0.2,0.4,0.2c0.2,0.1,0.5,0.1,0.7,0.1c0.3,0,0.6,0,0.9-0.1c1.1-0.2,2.3-0.4,3.5-0.5s2.5-0.1,4-0.1
			c2.1,0,3.7,0.1,4.7,0.3s1.5,0.5,1.5,0.8s-0.4,0.5-1.1,0.7s-1.9,0.3-3.6,0.4l-3.8,0.2c-2.3,0.1-3.9,0.4-5.1,0.7
			c-1.1,0.3-1.7,0.7-1.7,1.2c0,0.3,0.2,0.6,0.7,0.9c0.5,0.3,1.1,0.5,1.9,0.7s1.8,0.3,3,0.4c1.1,0.1,2.4,0.2,3.8,0.2
			c1.5,0,2.9-0.1,4.2-0.2c1.3-0.1,2.5-0.3,3.5-0.5c0.3-0.1,0.5-0.1,0.6-0.2c0.1-0.1,0.1-0.2,0.1-0.2c-0.1-0.1-0.2-0.1-0.4-0.2
			c-0.2-0.1-0.5-0.1-0.8-0.1s-0.6,0-1,0.1c-1,0.2-1.9,0.3-3,0.4c-1,0.1-2.1,0.1-3.3,0.1c-1.2,0-2.3-0.1-3.2-0.2
			c-0.9-0.1-1.6-0.3-2.1-0.4c-0.5-0.2-0.7-0.4-0.7-0.7s0.3-0.5,1-0.7s1.8-0.3,3.4-0.4l3.8-0.2c2.4-0.1,4.2-0.4,5.3-0.6
			c1.2-0.3,1.7-0.7,1.7-1.2c0-0.3-0.2-0.6-0.7-0.8c-0.4-0.2-1.1-0.5-1.9-0.6c-0.8-0.2-1.8-0.3-3-0.4C501,56.8,499.6,56.8,498.2,56.8
			z"/>
	</g>
</g>
<g>
	<path class="st0" d="M512,51H197c-0.6,0-1-0.4-1-1s0.4-1,1-1h315c0.6,0,1,0.4,1,1S512.6,51,512,51z"/>
</g>
</svg>
